<svg width="66.000000" height="42.000000" viewBox="0 0 66 42" fill="none" xmlns="http://www.w3.org/2000/svg" xmlns:xlink="http://www.w3.org/1999/xlink">
	<desc>
			Created with Pixso.
	</desc>
	<defs/>
	<path id="PetStory online" d="M26.45 10.71Q27.29 11.48 29.12 12.01Q30.58 12.43 31.14 12.87Q31.34 13.02 31.46 13.22Q31.7 13.58 31.7 14.1Q31.7 14.54 31.51 14.88Q31.36 15.15 31.1 15.35Q30.5 15.81 29.37 15.81Q28.16 15.81 27.43 15.25Q27.13 15.01 26.95 14.7Q26.71 14.27 26.71 13.7L25.27 13.7Q25.27 14.26 25.46 14.76Q25.59 15.09 25.8 15.38Q25.8 15.39 25.81 15.4Q26.33 16.13 27.29 16.55Q27.47 16.63 27.66 16.7Q28.46 16.98 29.37 16.98Q31.08 16.98 32.11 16.19Q32.6 15.81 32.86 15.31Q33.13 14.77 33.13 14.08Q33.13 13.28 32.78 12.68Q32.77 12.66 32.76 12.65Q32.4 12.04 31.64 11.58Q30.87 11.13 29.53 10.75Q28.18 10.37 27.62 9.91Q27.27 9.63 27.14 9.27Q27.06 9.04 27.06 8.79Q27.06 8.28 27.28 7.91Q27.42 7.68 27.65 7.51Q28.24 7.04 29.29 7.04Q30.43 7.04 31.05 7.6Q31.22 7.75 31.35 7.94Q31.68 8.43 31.68 9.14L33.11 9.14Q33.11 8.69 32.99 8.27Q32.87 7.86 32.63 7.49Q32.52 7.32 32.39 7.16Q31.95 6.63 31.28 6.3Q30.41 5.87 29.29 5.87Q27.77 5.87 26.78 6.59Q26.71 6.65 26.64 6.7Q26.08 7.16 25.83 7.74Q25.62 8.23 25.62 8.82Q25.62 9.37 25.82 9.84Q26.03 10.32 26.45 10.71ZM4.83 16.83L4.83 12.6L7.38 12.6Q9.22 12.6 10.2 11.75Q10.43 11.55 10.61 11.3Q11.18 10.52 11.18 9.32Q11.18 8.36 10.76 7.64Q10.53 7.24 10.18 6.92Q10.14 6.89 10.11 6.86Q9.11 6.02 7.4 6.02L3.41 6.02L3.41 16.83L4.83 16.83ZM22.61 8.79L22.61 6.85L21.24 6.85L21.24 8.79L19.78 8.79L19.78 9.86L21.24 9.86L21.24 14.84Q21.24 15.87 21.71 16.42Q21.8 16.53 21.9 16.61Q22.35 16.98 23.1 16.98Q23.61 16.98 24.15 16.83L24.15 15.72Q23.74 15.81 23.5 15.81Q23.02 15.81 22.82 15.57Q22.82 15.57 22.82 15.56Q22.61 15.32 22.61 14.84L22.61 9.86L24.11 9.86L24.11 8.79L22.61 8.79ZM36.61 8.79L36.61 6.85L35.23 6.85L35.23 8.79L33.77 8.79L33.77 9.86L35.23 9.86L35.23 14.84Q35.23 15.87 35.7 16.42Q35.79 16.53 35.9 16.61Q36.35 16.98 37.09 16.98Q37.6 16.98 38.15 16.83L38.15 15.72Q37.73 15.81 37.49 15.81Q37.02 15.81 36.81 15.57Q36.81 15.57 36.81 15.56Q36.61 15.32 36.61 14.84L36.61 9.86L38.11 9.86L38.11 8.79L36.61 8.79ZM7.4 11.43L4.83 11.43L4.83 7.19L7.48 7.19Q8.44 7.21 9.03 7.69Q9.09 7.74 9.15 7.79Q9.32 7.96 9.44 8.15Q9.76 8.64 9.76 9.34Q9.76 10.16 9.36 10.67Q9.26 10.79 9.15 10.89Q8.54 11.43 7.4 11.43ZM14.15 16.52Q14.96 16.98 16.03 16.98Q17.23 16.98 18.07 16.43Q18.65 16.06 19.06 15.43L18.22 14.77Q17.88 15.2 17.45 15.49Q17.39 15.53 17.33 15.56Q16.83 15.86 16.1 15.86Q15.53 15.86 15.07 15.63Q14.71 15.45 14.41 15.13Q14.32 15.02 14.23 14.91Q13.74 14.22 13.72 13.21L19.16 13.21L19.16 12.63Q19.16 10.71 18.29 9.68Q18.03 9.37 17.72 9.16Q16.96 8.65 15.86 8.65Q15.44 8.65 15.04 8.75Q14.54 8.88 14.08 9.18Q13.85 9.32 13.66 9.5Q13.13 9.96 12.8 10.65Q12.34 11.59 12.34 12.78L12.34 13.04Q12.34 14.52 13.04 15.51Q13.19 15.72 13.37 15.91Q13.72 16.28 14.15 16.52ZM39.66 10.61Q39.2 11.56 39.2 12.74L39.2 12.83Q39.2 14.48 39.98 15.55Q40.09 15.7 40.21 15.84Q40.62 16.29 41.11 16.56Q41.87 16.98 42.86 16.98Q43.74 16.98 44.46 16.64Q44.63 16.56 44.78 16.46Q45.07 16.28 45.31 16.06Q45.77 15.62 46.07 15.01Q46.52 14.08 46.52 12.9L46.52 12.81Q46.52 11.13 45.71 10.04Q45.61 9.91 45.5 9.78Q45.11 9.34 44.62 9.07Q43.85 8.65 42.85 8.65Q42.02 8.65 41.33 8.96Q41.14 9.05 40.96 9.16Q40.75 9.29 40.56 9.45Q40.01 9.91 39.66 10.61ZM51.45 9.98Q51.81 9.98 52.12 10.03L52.12 8.75Q51.92 8.65 51.52 8.65Q50.93 8.65 50.47 8.89Q49.95 9.16 49.6 9.72L49.58 8.79L48.24 8.79L48.24 16.83L49.61 16.83L49.61 11.13Q49.82 10.63 50.2 10.34Q50.69 9.98 51.45 9.98ZM58.02 8.79L56.15 14.82L54.14 8.79L52.64 8.79L55.51 16.74L55.21 17.56Q54.95 18.31 54.56 18.59Q54.17 18.87 53.48 18.87L53.1 18.84L53.1 19.96L53.62 20.05L53.88 20.08Q54.37 20.08 54.78 19.9Q55.74 19.47 56.26 18.07L59.49 8.79L58.02 8.79ZM15.08 9.93Q15.43 9.77 15.86 9.77Q16.43 9.77 16.85 10.03Q17.06 10.16 17.22 10.35Q17.73 10.93 17.79 11.97L17.79 12.08L13.76 12.08Q13.89 10.99 14.46 10.38Q14.74 10.08 15.08 9.93ZM41.2 15.05Q40.58 14.24 40.58 12.9Q40.58 11.39 41.21 10.58Q41.52 10.18 41.94 9.97Q42.34 9.77 42.85 9.77Q43.38 9.77 43.8 9.99Q44.21 10.19 44.51 10.6Q45.14 11.42 45.14 12.74Q45.14 14.22 44.53 15.04Q44.23 15.43 43.84 15.63Q43.41 15.86 42.86 15.86Q42.32 15.86 41.89 15.64Q41.5 15.43 41.2 15.05ZM30.57 34.83L31.95 34.83L31.95 23.42L30.57 23.42L30.57 34.83ZM34.24 24.27Q34.15 24.44 34.15 24.66Q34.15 24.89 34.25 25.07Q34.29 25.15 34.36 25.22Q34.38 25.24 34.4 25.26Q34.6 25.44 34.96 25.44Q35.32 25.44 35.52 25.27Q35.55 25.24 35.57 25.22Q35.64 25.15 35.69 25.06Q35.78 24.89 35.78 24.66Q35.78 24.45 35.69 24.28Q35.65 24.18 35.57 24.1Q35.54 24.07 35.51 24.04Q35.31 23.87 34.96 23.87Q34.62 23.87 34.42 24.04Q34.39 24.07 34.36 24.1Q34.29 24.18 34.24 24.27ZM13.49 28.61Q13.02 29.56 13.02 30.74L13.02 30.83Q13.02 32.48 13.8 33.55Q13.91 33.7 14.04 33.84Q14.44 34.29 14.93 34.56Q15.7 34.98 16.68 34.98Q17.56 34.98 18.28 34.64Q18.45 34.56 18.6 34.46Q18.89 34.28 19.13 34.06Q19.59 33.62 19.89 33.01Q20.34 32.08 20.34 30.9L20.34 30.81Q20.34 29.13 19.54 28.04Q19.44 27.91 19.32 27.78Q18.93 27.34 18.44 27.07Q17.67 26.65 16.67 26.65Q15.84 26.65 15.15 26.96Q14.96 27.05 14.78 27.16Q14.57 27.29 14.38 27.45Q13.83 27.91 13.49 28.61ZM23.41 27.8L23.36 26.79L22.06 26.79L22.06 34.83L23.44 34.83L23.44 29.1Q23.62 28.72 23.91 28.43Q24.05 28.29 24.22 28.17Q24.37 28.07 24.53 27.99Q24.92 27.81 25.4 27.81Q26.21 27.81 26.6 28.22Q26.61 28.22 26.61 28.23Q27 28.64 27.01 29.51L27.01 34.83L28.38 34.83L28.38 29.52Q28.37 27.91 27.56 27.2Q26.93 26.65 25.81 26.65Q25.06 26.65 24.46 26.94Q23.86 27.23 23.41 27.8ZM39.18 27.8L39.14 26.79L37.84 26.79L37.84 34.83L39.21 34.83L39.21 29.1Q39.4 28.72 39.69 28.43Q39.83 28.29 40 28.17Q40.15 28.07 40.31 27.99Q40.7 27.81 41.17 27.81Q41.99 27.81 42.38 28.22Q42.38 28.22 42.39 28.23Q42.78 28.64 42.78 29.51L42.78 34.83L44.16 34.83L44.16 29.52Q44.15 27.91 43.34 27.2Q42.71 26.65 41.59 26.65Q40.84 26.65 40.23 26.94Q39.64 27.23 39.18 27.8ZM47.69 34.52Q48.5 34.98 49.57 34.98Q50.77 34.98 51.61 34.43Q52.19 34.06 52.6 33.43L51.76 32.77Q51.42 33.2 50.99 33.49Q50.93 33.53 50.87 33.56Q50.37 33.86 49.64 33.86Q49.07 33.86 48.61 33.63Q48.25 33.45 47.95 33.13Q47.85 33.02 47.77 32.91Q47.28 32.22 47.26 31.21L52.7 31.21L52.7 30.63Q52.7 28.71 51.83 27.68Q51.57 27.37 51.26 27.16Q50.5 26.65 49.39 26.65Q48.98 26.65 48.58 26.75Q48.08 26.88 47.62 27.18Q47.39 27.32 47.19 27.5Q46.67 27.96 46.34 28.65Q45.88 29.59 45.88 30.78L45.88 31.04Q45.88 32.52 46.58 33.51Q46.73 33.72 46.91 33.91Q47.26 34.28 47.69 34.52ZM34.26 34.83L35.64 34.83L35.64 26.79L34.26 26.79L34.26 34.83ZM15.02 33.05Q14.4 32.24 14.4 30.9Q14.4 29.39 15.03 28.58Q15.34 28.17 15.76 27.97Q16.17 27.77 16.67 27.77Q17.2 27.77 17.62 27.99Q18.03 28.19 18.34 28.6Q18.96 29.42 18.96 30.74Q18.96 32.22 18.35 33.04Q18.05 33.43 17.66 33.63Q17.23 33.86 16.68 33.86Q16.14 33.86 15.71 33.64Q15.32 33.43 15.02 33.05ZM48.62 27.93Q48.97 27.77 49.39 27.77Q49.97 27.77 50.39 28.03Q50.59 28.16 50.76 28.35Q51.27 28.93 51.33 29.97L51.33 30.08L47.3 30.08Q47.43 28.99 48 28.38Q48.28 28.08 48.62 27.93Z" fill="#FFFFFF" fill-opacity="1.000000" fill-rule="evenodd"/>
	<path id="PetStory online" d="M4.83 12.6L4.83 16.83L3.41 16.83L3.41 6.02L7.4 6.02Q9.17 6.02 10.18 6.92Q11.18 7.83 11.18 9.32Q11.18 10.9 10.2 11.75Q9.22 12.6 7.38 12.6L4.83 12.6ZM4.83 11.43L7.4 11.43Q8.54 11.43 9.15 10.89Q9.76 10.35 9.76 9.34Q9.76 8.37 9.15 7.79Q8.54 7.21 7.48 7.19L4.83 7.19L4.83 11.43ZM16.03 16.98Q14.39 16.98 13.37 15.91Q12.34 14.83 12.34 13.04L12.34 12.78Q12.34 11.59 12.8 10.65Q13.26 9.71 14.08 9.18Q14.9 8.65 15.86 8.65Q17.42 8.65 18.29 9.68Q19.16 10.71 19.16 12.63L19.16 13.21L13.72 13.21Q13.75 14.39 14.41 15.13Q15.08 15.86 16.1 15.86Q16.83 15.86 17.33 15.56Q17.84 15.26 18.22 14.77L19.06 15.43Q18.05 16.98 16.03 16.98ZM15.86 9.77Q15.02 9.77 14.46 10.38Q13.89 10.99 13.76 12.08L17.79 12.08L17.79 11.97Q17.73 10.93 17.22 10.35Q16.72 9.77 15.86 9.77ZM22.61 6.85L22.61 8.79L24.11 8.79L24.11 9.86L22.61 9.86L22.61 14.84Q22.61 15.32 22.82 15.56Q23.02 15.81 23.5 15.81Q23.74 15.81 24.15 15.72L24.15 16.83Q23.61 16.98 23.1 16.98Q22.18 16.98 21.71 16.42Q21.24 15.87 21.24 14.84L21.24 9.86L19.78 9.86L19.78 8.79L21.24 8.79L21.24 6.85L22.61 6.85ZM29.12 12.01Q27.29 11.48 26.45 10.71Q25.62 9.95 25.62 8.82Q25.62 7.54 26.64 6.7Q27.66 5.87 29.29 5.87Q30.41 5.87 31.28 6.3Q32.15 6.73 32.63 7.49Q33.11 8.24 33.11 9.14L31.68 9.14Q31.68 8.16 31.05 7.6Q30.43 7.04 29.29 7.04Q28.24 7.04 27.65 7.51Q27.06 7.97 27.06 8.79Q27.06 9.46 27.62 9.91Q28.18 10.37 29.53 10.75Q30.87 11.13 31.64 11.58Q32.4 12.04 32.76 12.65Q33.13 13.26 33.13 14.08Q33.13 15.4 32.11 16.19Q31.08 16.98 29.37 16.98Q28.25 16.98 27.29 16.55Q26.32 16.13 25.8 15.38Q25.27 14.64 25.27 13.7L26.71 13.7Q26.71 14.68 27.43 15.25Q28.16 15.81 29.37 15.81Q30.5 15.81 31.1 15.35Q31.7 14.89 31.7 14.1Q31.7 13.3 31.14 12.87Q30.58 12.43 29.12 12.01ZM36.61 6.85L36.61 8.79L38.11 8.79L38.11 9.86L36.61 9.86L36.61 14.84Q36.61 15.32 36.81 15.56Q37.01 15.81 37.49 15.81Q37.73 15.81 38.15 15.72L38.15 16.83Q37.6 16.98 37.09 16.98Q36.17 16.98 35.7 16.42Q35.23 15.87 35.23 14.84L35.23 9.86L33.77 9.86L33.77 8.79L35.23 8.79L35.23 6.85L36.61 6.85ZM39.2 12.74Q39.2 11.56 39.66 10.61Q40.13 9.67 40.96 9.16Q41.79 8.65 42.85 8.65Q44.49 8.65 45.5 9.78Q46.52 10.92 46.52 12.81L46.52 12.9Q46.52 14.08 46.07 15.01Q45.62 15.94 44.78 16.46Q43.95 16.98 42.86 16.98Q41.23 16.98 40.21 15.84Q39.2 14.71 39.2 12.83L39.2 12.74ZM40.58 12.9Q40.58 14.24 41.2 15.05Q41.82 15.86 42.86 15.86Q43.91 15.86 44.53 15.04Q45.14 14.22 45.14 12.74Q45.14 11.42 44.51 10.6Q43.89 9.77 42.85 9.77Q41.83 9.77 41.21 10.58Q40.58 11.39 40.58 12.9ZM52.12 10.03Q51.81 9.98 51.45 9.98Q50.1 9.98 49.61 11.13L49.61 16.83L48.24 16.83L48.24 8.79L49.58 8.79L49.6 9.72Q50.27 8.65 51.52 8.65Q51.92 8.65 52.12 8.75L52.12 10.03ZM56.15 14.82L58.02 8.79L59.49 8.79L56.26 18.07Q55.51 20.08 53.88 20.08L53.62 20.05L53.1 19.96L53.1 18.84L53.48 18.87Q54.17 18.87 54.56 18.59Q54.95 18.31 55.21 17.56L55.51 16.74L52.64 8.79L54.14 8.79L56.15 14.82ZM13.02 30.74Q13.02 29.56 13.49 28.61Q13.95 27.67 14.78 27.16Q15.61 26.65 16.67 26.65Q18.31 26.65 19.32 27.78Q20.34 28.92 20.34 30.81L20.34 30.9Q20.34 32.08 19.89 33.01Q19.44 33.94 18.6 34.46Q17.77 34.98 16.68 34.98Q15.05 34.98 14.04 33.84Q13.02 32.71 13.02 30.83L13.02 30.74ZM14.4 30.9Q14.4 32.24 15.02 33.05Q15.64 33.86 16.68 33.86Q17.73 33.86 18.35 33.04Q18.96 32.22 18.96 30.74Q18.96 29.42 18.34 28.6Q17.71 27.77 16.67 27.77Q15.65 27.77 15.03 28.58Q14.4 29.39 14.4 30.9ZM23.36 26.79L23.41 27.8Q24.33 26.65 25.81 26.65Q28.36 26.65 28.38 29.52L28.38 34.83L27.01 34.83L27.01 29.51Q27 28.64 26.61 28.23Q26.22 27.81 25.4 27.81Q24.73 27.81 24.22 28.17Q23.72 28.53 23.44 29.1L23.44 34.83L22.06 34.83L22.06 26.79L23.36 26.79ZM31.95 34.83L30.57 34.83L30.57 23.42L31.95 23.42L31.95 34.83ZM35.64 34.83L34.26 34.83L34.26 26.79L35.64 26.79L35.64 34.83ZM34.15 24.66Q34.15 24.33 34.36 24.1Q34.56 23.87 34.96 23.87Q35.36 23.87 35.57 24.1Q35.78 24.33 35.78 24.66Q35.78 25 35.57 25.22Q35.36 25.44 34.96 25.44Q34.56 25.44 34.36 25.22Q34.15 25 34.15 24.66ZM39.14 26.79L39.18 27.8Q40.1 26.65 41.59 26.65Q44.14 26.65 44.16 29.52L44.16 34.83L42.78 34.83L42.78 29.51Q42.78 28.64 42.39 28.23Q42 27.81 41.17 27.81Q40.5 27.81 40 28.17Q39.49 28.53 39.21 29.1L39.21 34.83L37.84 34.83L37.84 26.79L39.14 26.79ZM49.57 34.98Q47.93 34.98 46.91 33.91Q45.88 32.83 45.88 31.04L45.88 30.78Q45.88 29.59 46.34 28.65Q46.79 27.71 47.62 27.18Q48.44 26.65 49.39 26.65Q50.96 26.65 51.83 27.68Q52.7 28.71 52.7 30.63L52.7 31.21L47.26 31.21Q47.29 32.39 47.95 33.13Q48.61 33.86 49.64 33.86Q50.37 33.86 50.87 33.56Q51.38 33.26 51.76 32.77L52.6 33.43Q51.59 34.98 49.57 34.98ZM49.39 27.77Q48.56 27.77 48 28.38Q47.43 28.99 47.3 30.08L51.33 30.08L51.33 29.97Q51.27 28.93 50.76 28.35Q50.26 27.77 49.39 27.77Z" stroke="#FE9013" stroke-opacity="1.000000" stroke-width="0.950725"/>
	<path id="bamboo" d="M16.3 34.34C16.1 33.54 15.5 32.59 15.04 31.58C15.44 32.45 15.83 33.32 16.3 34.34ZM17.42 34.25C16.76 33.16 16.36 31.92 15.96 30.68C15.63 30.32 15.37 30.47 15.1 30.62C14.64 31.07 14.18 31.15 14.71 31.58C15.37 32.67 15.84 33.69 16.17 34.78C16.3 34.71 16.56 34.55 16.7 34.48C16.96 34.33 17.03 34.11 17.42 34.25ZM14.57 30.56C14.37 29.76 13.78 28.81 13.31 27.8C13.71 28.67 14.11 29.54 14.57 30.56ZM12.78 26.63C12.65 25.98 11.98 24.89 11.58 24.01C11.98 24.89 12.31 25.61 12.85 26.78C12.85 26.78 12.85 26.78 12.78 26.63ZM13.9 26.54C13.31 25.6 12.91 24.36 12.44 22.98C12.18 22.76 11.91 22.91 11.65 23.06C11.19 23.51 10.72 23.59 11.25 24.02C11.85 24.96 12.38 26.13 12.72 27.22C12.85 27.14 13.11 26.99 13.24 26.92C13.44 26.62 13.57 26.55 13.9 26.54ZM11.05 22.85C10.92 22.19 10.26 21.11 9.86 20.23C10.26 21.11 10.59 21.83 11.12 23L11.05 22.85ZM12.18 22.76C11.58 21.82 11.18 20.58 10.71 19.19C10.45 18.98 10.18 19.13 9.92 19.28C9.46 19.73 8.93 19.66 9.53 20.24C10.12 21.18 10.66 22.35 10.99 23.44C11.12 23.36 11.38 23.21 11.45 22.99C11.71 22.84 11.85 22.77 12.18 22.76ZM11.92 26.94C11.39 26.87 11 26.73 10.47 26.67C11 26.73 11.33 26.73 11.92 26.94C11.13 26.66 10.53 26.45 9.81 26.31C10.4 26.52 10.93 26.59 11.72 26.87C10.86 26.44 10.14 26.31 9.48 25.95C10.07 26.16 10.67 26.37 11.53 26.8C10.8 26.3 10 26.02 9.21 25.74C10 26.02 10.86 26.44 11.92 26.94ZM11.66 27.09C11.66 27.09 11.53 27.17 11.46 27.02C10.47 27.04 9.61 26.98 8.82 27.06C9.54 27.2 10.34 27.11 11.13 27.03C10.34 27.11 9.68 27.12 9.08 27.28C9.74 27.27 10.54 27.18 11.33 27.1C10.67 27.11 10.07 27.26 9.48 27.42C10.27 27.33 10.87 27.18 11.53 27.17C11.06 27.25 10.6 27.33 10.14 27.41C10.6 27.33 11.06 27.25 11.53 27.17C11.66 27.09 11.66 27.09 11.66 27.09ZM12.06 27.96C11.79 28.11 11.6 28.41 11.2 28.64C11.46 28.49 11.66 28.19 12.06 27.96C11.66 28.19 11.2 28.64 10.8 28.86C11.2 28.64 11.53 28.26 11.92 28.04C11.4 28.34 10.87 28.64 10.41 29.09C10.74 28.72 11.27 28.42 11.79 28.11C11.27 28.42 10.74 28.72 10.21 29.02C10.74 28.72 11.33 28.19 11.99 27.82C12.12 27.74 12.19 27.89 12.06 27.96ZM12.12 28.11C11.99 28.18 11.99 28.18 11.99 28.18C11.46 28.85 11.07 29.44 10.81 29.96C11.07 29.44 11.46 28.85 11.79 28.48C11.53 29 11.2 29.37 10.94 29.89C11.2 29.37 11.6 28.78 11.86 28.26C11.6 28.78 11.46 29.22 11.27 29.51C11.46 29.22 11.73 28.7 11.99 28.18C11.86 28.63 11.66 28.92 11.6 29.14C11.79 28.85 11.79 28.48 11.99 28.18L12.12 28.11ZM12.45 27.74C12.58 27.66 12.58 27.66 12.72 27.59C12.78 27.73 12.78 27.73 12.98 27.8C13.64 28.89 14.11 29.91 14.44 31C14.57 30.92 14.84 30.77 14.97 30.7C15.17 30.4 15.3 30.33 15.63 30.32C15.03 29.38 14.63 28.14 14.17 26.76C13.9 26.54 13.64 26.69 13.37 26.84C13.05 27.21 12.72 27.22 12.65 27.44C12.58 27.29 12.38 27.22 12.32 27.08C12.25 26.93 12.05 26.86 11.72 26.5C10.86 26.08 9.47 25.59 8.75 25.45C8.95 25.89 10 26.38 10.86 26.81C10.01 26.75 8.88 26.84 8.22 27.22C8.88 27.58 11.33 27.46 12.05 27.23C12.05 27.23 12.19 27.15 12.25 27.3C12.45 27.37 12.65 27.44 12.72 27.59C12.58 27.66 12.45 27.74 12.25 27.67C12.25 27.67 12.12 27.74 11.86 27.89C11.13 28.12 10.27 28.8 9.81 29.25C10.21 29.39 11 28.93 11.6 28.41C11.2 29 10.74 29.82 10.48 30.33C11.07 30.18 12.12 28.47 12.19 27.89C12.32 27.81 12.32 27.81 12.45 27.74Z" fill="#FFFFFF" fill-opacity="1.000000" fill-rule="evenodd"/>
	<path id="bamboo" d="M9.53 20.24C9.11 19.83 9.25 19.74 9.53 19.57C9.65 19.5 9.79 19.41 9.92 19.28C10.18 19.13 10.45 18.98 10.71 19.19C10.74 19.27 10.77 19.35 10.79 19.42C11.02 20.11 11.24 20.76 11.48 21.35C11.55 21.52 11.62 21.68 11.69 21.84C11.71 21.88 11.72 21.92 11.74 21.96C11.76 21.99 11.77 22.02 11.78 22.05C11.91 22.3 12.04 22.54 12.18 22.76C12 22.76 11.89 22.78 11.78 22.83C11.67 22.86 11.58 22.92 11.45 22.99C11.43 23.07 11.38 23.14 11.32 23.2C11.22 23.31 11.07 23.39 10.99 23.44C10.96 23.34 10.92 23.23 10.89 23.13C10.83 22.96 10.77 22.79 10.71 22.63C10.7 22.6 10.69 22.57 10.68 22.54C10.67 22.54 10.67 22.53 10.67 22.53C10.67 22.51 10.66 22.5 10.65 22.48C10.36 21.75 10 21.01 9.61 20.37C9.58 20.33 9.56 20.28 9.53 20.24ZM10.85 22.25C10.88 22.32 10.91 22.39 10.93 22.45C10.94 22.47 10.94 22.48 10.95 22.49C10.99 22.62 11.03 22.74 11.05 22.85L9.86 20.23C9.88 20.29 9.91 20.35 9.94 20.41C9.94 20.41 9.94 20.42 9.95 20.42C10.06 20.66 10.19 20.91 10.31 21.15C10.43 21.37 10.54 21.59 10.64 21.8C10.72 21.96 10.79 22.1 10.85 22.25ZM11.41 23.27C11.45 23.24 11.49 23.2 11.53 23.17C11.57 23.14 11.61 23.1 11.65 23.06L11.66 23.05C11.72 23.02 11.77 22.99 11.82 22.97C11.88 22.94 11.94 22.91 12 22.89C12.15 22.85 12.29 22.86 12.44 22.98C12.47 23.05 12.49 23.13 12.52 23.21C12.58 23.39 12.64 23.56 12.7 23.74C12.86 24.23 13.03 24.69 13.2 25.13C13.27 25.3 13.34 25.47 13.42 25.63C13.44 25.67 13.45 25.71 13.47 25.74C13.48 25.77 13.5 25.8 13.51 25.83C13.63 26.08 13.76 26.32 13.9 26.54C13.73 26.54 13.61 26.57 13.51 26.63C13.46 26.66 13.41 26.71 13.36 26.76C13.35 26.77 13.34 26.79 13.33 26.8C13.32 26.81 13.3 26.83 13.29 26.86C13.28 26.86 13.28 26.86 13.28 26.86C13.27 26.88 13.26 26.9 13.24 26.92L12.72 27.22C12.7 27.17 12.68 27.12 12.67 27.06C12.66 27.04 12.65 27.01 12.64 26.98C12.63 26.96 12.62 26.93 12.62 26.91C12.59 26.85 12.57 26.78 12.55 26.72L12.55 26.72C12.53 26.67 12.52 26.63 12.5 26.58C12.48 26.52 12.45 26.45 12.43 26.39C12.42 26.36 12.41 26.33 12.4 26.31C12.39 26.29 12.38 26.27 12.37 26.24C12.35 26.19 12.33 26.14 12.31 26.08C12.3 26.06 12.29 26.04 12.28 26.01C12.22 25.87 12.16 25.72 12.09 25.58C11.89 25.13 11.66 24.69 11.42 24.28C11.39 24.24 11.36 24.2 11.34 24.16C11.31 24.11 11.28 24.06 11.25 24.02C10.86 23.7 11.02 23.57 11.32 23.34C11.34 23.32 11.36 23.31 11.38 23.29C11.39 23.28 11.4 23.28 11.41 23.27ZM12.78 26.63L11.58 24.01C11.6 24.06 11.62 24.1 11.64 24.14C11.76 24.39 11.9 24.66 12.04 24.93C12.15 25.15 12.27 25.37 12.37 25.58C12.43 25.71 12.48 25.82 12.54 25.94C12.57 26.02 12.61 26.1 12.64 26.17C12.64 26.18 12.64 26.18 12.64 26.19C12.65 26.21 12.66 26.22 12.66 26.24C12.67 26.25 12.67 26.26 12.67 26.28C12.69 26.31 12.7 26.35 12.71 26.39C12.72 26.4 12.72 26.41 12.72 26.41C12.74 26.47 12.75 26.51 12.76 26.56C12.77 26.59 12.77 26.61 12.78 26.63ZM12.42 27.21C12.5 27.28 12.61 27.34 12.65 27.44C12.68 27.34 12.76 27.29 12.87 27.22C12.94 27.18 13.02 27.14 13.11 27.08C13.13 27.07 13.14 27.05 13.16 27.04C13.22 27 13.27 26.95 13.33 26.89C13.33 26.89 13.34 26.88 13.34 26.88C13.35 26.87 13.36 26.86 13.37 26.84C13.37 26.84 13.37 26.84 13.37 26.84L13.4 26.83C13.45 26.8 13.5 26.77 13.55 26.75C13.61 26.72 13.67 26.69 13.73 26.67C13.88 26.63 14.02 26.64 14.17 26.76C14.19 26.83 14.22 26.91 14.24 26.99C14.3 27.17 14.36 27.34 14.42 27.52C14.59 28.02 14.76 28.5 14.94 28.94C15.01 29.1 15.08 29.26 15.14 29.41C15.16 29.45 15.18 29.49 15.2 29.53C15.22 29.58 15.25 29.63 15.27 29.68C15.38 29.9 15.5 30.12 15.63 30.32C15.46 30.32 15.34 30.35 15.24 30.41C15.14 30.47 15.06 30.56 14.97 30.7L14.44 31C14.42 30.92 14.39 30.83 14.36 30.75C14.35 30.72 14.34 30.68 14.33 30.64C14.28 30.49 14.22 30.34 14.16 30.19C14.15 30.16 14.14 30.12 14.13 30.09C13.9 29.52 13.64 28.95 13.32 28.38C13.26 28.27 13.2 28.17 13.14 28.07C13.12 28.04 13.11 28.01 13.09 27.99C13.09 27.97 13.08 27.96 13.07 27.95C13.07 27.95 13.07 27.94 13.06 27.94C13.06 27.92 13.05 27.91 13.04 27.9C13.02 27.87 13 27.83 12.98 27.8C12.78 27.73 12.78 27.73 12.72 27.59L12.19 27.89C12.18 27.95 12.16 28.03 12.13 28.13C12.12 28.15 12.11 28.17 12.11 28.2C12.1 28.2 12.1 28.21 12.1 28.21C12.1 28.22 12.1 28.22 12.1 28.22C12.09 28.23 12.09 28.23 12.09 28.24C12.09 28.24 12.09 28.25 12.08 28.25C12.08 28.26 12.08 28.26 12.08 28.26C12.08 28.27 12.07 28.28 12.07 28.29C12.07 28.29 12.07 28.29 12.07 28.29C12.07 28.29 12.07 28.3 12.07 28.3C12.06 28.31 12.06 28.31 12.05 28.32C12.05 28.33 12.05 28.33 12.05 28.34C12.05 28.34 12.04 28.35 12.04 28.36C12.04 28.36 12.04 28.37 12.03 28.37C12.02 28.4 12.01 28.43 11.99 28.46C11.99 28.48 11.98 28.49 11.97 28.51C11.96 28.53 11.95 28.55 11.94 28.57C11.94 28.57 11.94 28.57 11.94 28.58C11.93 28.59 11.93 28.6 11.92 28.61C11.9 28.66 11.87 28.7 11.85 28.75C11.84 28.75 11.84 28.76 11.84 28.76C11.8 28.84 11.75 28.92 11.71 29C11.68 29.05 11.64 29.1 11.61 29.15C11.59 29.18 11.57 29.21 11.55 29.24C11.54 29.26 11.53 29.27 11.52 29.29C11.52 29.29 11.51 29.3 11.51 29.31C11.48 29.34 11.46 29.37 11.44 29.41C11.43 29.42 11.42 29.44 11.41 29.45C11.4 29.46 11.39 29.47 11.38 29.48C11.37 29.51 11.35 29.53 11.33 29.56C11.29 29.62 11.24 29.67 11.2 29.73C11.14 29.8 11.08 29.87 11.02 29.93C11.01 29.94 11 29.95 11 29.96C10.97 29.98 10.95 30 10.93 30.03C10.76 30.19 10.61 30.3 10.48 30.33C10.51 30.27 10.54 30.21 10.58 30.14C10.62 30.06 10.66 29.98 10.7 29.9C10.72 29.87 10.74 29.83 10.77 29.79L10.77 29.79C10.77 29.79 10.77 29.79 10.77 29.78C10.8 29.74 10.82 29.69 10.85 29.64C10.86 29.62 10.87 29.6 10.89 29.58C10.9 29.56 10.91 29.54 10.92 29.52C10.95 29.46 10.99 29.4 11.02 29.34C11.02 29.34 11.02 29.34 11.02 29.33C11.07 29.26 11.11 29.18 11.16 29.1C11.2 29.04 11.24 28.97 11.28 28.91C11.29 28.89 11.3 28.88 11.3 28.87C11.37 28.77 11.43 28.67 11.49 28.57C11.52 28.52 11.56 28.46 11.6 28.41C11.55 28.45 11.5 28.49 11.45 28.53C11.38 28.59 11.3 28.65 11.23 28.7C11.19 28.73 11.15 28.76 11.12 28.78C11.03 28.84 10.94 28.9 10.86 28.95L10.85 28.96C10.78 29 10.72 29.03 10.66 29.06C10.6 29.09 10.54 29.12 10.49 29.14C10.48 29.14 10.48 29.15 10.47 29.15C10.45 29.16 10.44 29.16 10.43 29.17C10.38 29.18 10.34 29.2 10.3 29.21C10.29 29.22 10.27 29.22 10.26 29.22C10.26 29.23 10.26 29.23 10.26 29.23C10.22 29.24 10.19 29.24 10.15 29.25L10.15 29.25C10.11 29.26 10.06 29.27 10.01 29.27C9.94 29.27 9.87 29.27 9.81 29.25C9.91 29.15 10.03 29.04 10.17 28.93C10.18 28.92 10.18 28.91 10.19 28.91C10.2 28.9 10.22 28.88 10.23 28.87C10.24 28.87 10.24 28.86 10.25 28.86C10.34 28.79 10.43 28.71 10.53 28.64L10.53 28.64C10.57 28.61 10.61 28.58 10.65 28.55C10.65 28.55 10.66 28.55 10.66 28.54C10.68 28.53 10.7 28.51 10.72 28.5C10.74 28.49 10.75 28.48 10.77 28.47C10.79 28.45 10.82 28.43 10.85 28.41C10.86 28.41 10.87 28.4 10.87 28.39C10.9 28.38 10.92 28.37 10.94 28.35C10.95 28.35 10.95 28.34 10.96 28.34C10.98 28.32 11.01 28.31 11.04 28.29C11.05 28.28 11.06 28.27 11.07 28.27C11.1 28.25 11.13 28.24 11.15 28.22C11.18 28.2 11.21 28.19 11.23 28.17L11.25 28.17L11.26 28.16L11.26 28.16C11.31 28.13 11.35 28.11 11.4 28.09C11.41 28.08 11.43 28.07 11.44 28.06C11.45 28.06 11.45 28.06 11.46 28.06C11.46 28.05 11.47 28.05 11.47 28.05C11.48 28.04 11.49 28.04 11.49 28.04L11.5 28.04C11.51 28.03 11.52 28.02 11.54 28.02C11.56 28.01 11.57 28 11.59 28C11.59 27.99 11.6 27.99 11.61 27.99C11.61 27.98 11.62 27.98 11.62 27.98C11.64 27.97 11.66 27.96 11.68 27.96C11.69 27.95 11.7 27.95 11.71 27.94C11.72 27.94 11.72 27.94 11.72 27.94C11.73 27.94 11.75 27.93 11.76 27.93C11.79 27.91 11.83 27.9 11.86 27.89L12.25 27.67C12.45 27.74 12.58 27.66 12.72 27.59C12.68 27.5 12.6 27.44 12.5 27.4C12.42 27.36 12.34 27.33 12.25 27.3C12.19 27.15 12.05 27.23 12.05 27.23C12.04 27.23 12.03 27.24 12.02 27.24C12.01 27.24 12 27.25 11.99 27.25C11.98 27.25 11.97 27.25 11.97 27.26C11.91 27.27 11.86 27.28 11.8 27.29C11.79 27.3 11.77 27.3 11.76 27.3C11.76 27.3 11.76 27.3 11.76 27.3C11.76 27.3 11.76 27.3 11.75 27.3C11.74 27.3 11.73 27.31 11.72 27.31C11.68 27.32 11.64 27.32 11.6 27.33C11.6 27.33 11.59 27.33 11.59 27.33C11.58 27.33 11.56 27.34 11.54 27.34C11.54 27.34 11.53 27.34 11.52 27.34C11.51 27.34 11.51 27.34 11.5 27.34C11.48 27.35 11.47 27.35 11.45 27.35C11.45 27.35 11.45 27.35 11.44 27.35C11.42 27.35 11.4 27.36 11.38 27.36C11.38 27.36 11.37 27.36 11.37 27.36C11.36 27.36 11.34 27.36 11.33 27.37C11.33 27.37 11.32 27.37 11.32 27.37L11.32 27.37C11.31 27.37 11.3 27.37 11.29 27.37C11.29 27.37 11.28 27.37 11.28 27.37C11.27 27.37 11.27 27.37 11.26 27.37C11.25 27.37 11.25 27.38 11.25 27.38C11.25 27.38 11.25 27.38 11.24 27.38C11.23 27.38 11.23 27.38 11.22 27.38C11.21 27.38 11.21 27.38 11.21 27.38C11.2 27.38 11.18 27.38 11.17 27.38C11.16 27.38 11.16 27.38 11.16 27.38L11.16 27.39L11.16 27.39C11.15 27.39 11.15 27.39 11.15 27.39C11.06 27.39 10.98 27.4 10.89 27.41C10.88 27.41 10.87 27.41 10.86 27.41C10.83 27.41 10.8 27.42 10.76 27.42C10.73 27.42 10.7 27.42 10.66 27.42C10.66 27.43 10.65 27.43 10.64 27.43C10.64 27.43 10.63 27.43 10.63 27.43C10.61 27.43 10.59 27.43 10.58 27.43C10.56 27.43 10.55 27.43 10.54 27.43C10.53 27.43 10.52 27.43 10.5 27.43C10.45 27.44 10.4 27.44 10.35 27.44C10.32 27.44 10.3 27.44 10.27 27.44C10.23 27.44 10.19 27.44 10.14 27.44C10.14 27.44 10.13 27.45 10.12 27.45C10.06 27.45 9.99 27.45 9.92 27.45C9.77 27.45 9.62 27.44 9.48 27.44C9.46 27.44 9.44 27.44 9.42 27.44C9.31 27.43 9.21 27.42 9.11 27.41C9.07 27.41 9.03 27.41 8.99 27.4C8.93 27.4 8.88 27.39 8.83 27.38C8.78 27.38 8.72 27.37 8.67 27.36C8.48 27.32 8.33 27.28 8.22 27.22C8.36 27.14 8.52 27.07 8.7 27.02C8.74 27 8.79 26.99 8.84 26.98C8.87 26.97 8.91 26.96 8.95 26.95C8.96 26.94 8.97 26.94 8.98 26.94C9.02 26.93 9.06 26.92 9.1 26.91C9.11 26.91 9.13 26.91 9.15 26.9C9.16 26.9 9.16 26.9 9.17 26.9C9.23 26.89 9.29 26.88 9.35 26.87C9.36 26.87 9.37 26.87 9.37 26.86C9.38 26.86 9.39 26.86 9.4 26.86C9.42 26.86 9.43 26.86 9.45 26.85C9.5 26.85 9.55 26.84 9.6 26.84C9.63 26.83 9.67 26.83 9.7 26.83C9.76 26.82 9.81 26.82 9.87 26.81C9.94 26.81 10.01 26.8 10.08 26.8C10.2 26.79 10.33 26.79 10.45 26.79C10.59 26.8 10.73 26.8 10.86 26.81C10.79 26.77 10.71 26.73 10.62 26.69C10.57 26.68 10.52 26.68 10.47 26.67C10.52 26.68 10.57 26.68 10.62 26.69C10.57 26.66 10.52 26.64 10.48 26.62C10.37 26.57 10.26 26.51 10.16 26.46C10.14 26.45 10.12 26.44 10.09 26.43C10.06 26.41 10.04 26.4 10.01 26.38C9.99 26.38 9.98 26.37 9.96 26.37C9.92 26.35 9.88 26.34 9.84 26.33C9.83 26.32 9.82 26.32 9.81 26.31C9.82 26.32 9.84 26.32 9.85 26.32C9.88 26.33 9.9 26.33 9.92 26.34C9.91 26.33 9.9 26.32 9.88 26.32C9.86 26.31 9.84 26.29 9.82 26.28C9.81 26.27 9.79 26.27 9.78 26.26C9.77 26.26 9.77 26.25 9.76 26.25C9.72 26.23 9.68 26.21 9.64 26.18C9.62 26.17 9.6 26.16 9.58 26.15C9.53 26.12 9.48 26.09 9.44 26.06C9.42 26.06 9.41 26.05 9.4 26.04C9.39 26.04 9.38 26.03 9.38 26.03C9.31 25.99 9.25 25.95 9.2 25.91C9.18 25.9 9.17 25.89 9.16 25.88C8.96 25.74 8.81 25.59 8.75 25.45C8.9 25.48 9.07 25.52 9.27 25.58C9.35 25.6 9.44 25.63 9.53 25.65C9.56 25.66 9.59 25.67 9.61 25.68C9.7 25.71 9.8 25.74 9.89 25.77C9.92 25.78 9.95 25.79 9.99 25.8C10 25.81 10.02 25.81 10.04 25.82C10.21 25.88 10.39 25.94 10.57 26.01C10.59 26.02 10.61 26.03 10.64 26.04C10.67 26.05 10.71 26.06 10.75 26.08C10.75 26.08 10.75 26.08 10.75 26.08C10.8 26.1 10.85 26.12 10.9 26.14C10.91 26.14 10.92 26.15 10.93 26.15L10.94 26.15C10.98 26.17 11.03 26.19 11.07 26.21C11.08 26.21 11.09 26.22 11.09 26.22C11.11 26.23 11.13 26.23 11.15 26.24C11.16 26.25 11.17 26.25 11.19 26.26C11.19 26.26 11.19 26.26 11.2 26.26C11.23 26.28 11.26 26.29 11.29 26.3C11.29 26.3 11.3 26.31 11.3 26.31C11.32 26.32 11.34 26.33 11.36 26.33C11.37 26.34 11.39 26.35 11.4 26.35C11.41 26.36 11.42 26.36 11.43 26.37C11.44 26.37 11.44 26.37 11.44 26.37C11.48 26.39 11.52 26.4 11.55 26.42C11.59 26.44 11.63 26.46 11.67 26.48C11.67 26.48 11.67 26.48 11.67 26.48C11.69 26.49 11.71 26.5 11.72 26.5C11.73 26.51 11.74 26.52 11.74 26.52C11.75 26.54 11.76 26.55 11.77 26.56C11.79 26.57 11.8 26.59 11.82 26.6C11.83 26.62 11.85 26.63 11.87 26.65C11.89 26.67 11.91 26.7 11.94 26.72C11.94 26.72 11.95 26.73 11.95 26.73C11.96 26.73 11.96 26.74 11.96 26.74C11.97 26.75 11.98 26.75 11.98 26.76C11.99 26.76 11.99 26.76 11.99 26.77C12.01 26.78 12.03 26.8 12.05 26.81C12.06 26.82 12.07 26.83 12.09 26.84C12.09 26.85 12.09 26.85 12.09 26.85C12.21 26.94 12.28 27 12.32 27.08C12.32 27.08 12.32 27.09 12.33 27.09C12.35 27.14 12.38 27.17 12.42 27.21ZM11.88 26.93C11.84 26.93 11.8 26.92 11.76 26.92C11.74 26.91 11.72 26.91 11.71 26.91C11.7 26.91 11.69 26.91 11.69 26.9C11.68 26.9 11.68 26.9 11.68 26.9C11.66 26.9 11.64 26.9 11.61 26.89C11.6 26.89 11.58 26.89 11.56 26.88C11.56 26.88 11.55 26.88 11.55 26.88L11.55 26.88C11.54 26.88 11.54 26.88 11.54 26.88C11.52 26.87 11.51 26.87 11.5 26.87C11.49 26.87 11.49 26.87 11.48 26.87C11.45 26.86 11.43 26.85 11.4 26.85C11.39 26.85 11.39 26.85 11.38 26.85C11.37 26.84 11.37 26.84 11.37 26.84C11.35 26.84 11.33 26.83 11.32 26.83C11.25 26.82 11.18 26.8 11.12 26.79C11.09 26.78 11.07 26.78 11.04 26.77C10.99 26.76 10.93 26.75 10.87 26.74C10.79 26.72 10.71 26.71 10.62 26.69L10.62 26.69C10.71 26.7 10.79 26.71 10.87 26.71C10.93 26.72 10.99 26.73 11.05 26.73C11.07 26.74 11.1 26.74 11.12 26.74C11.18 26.75 11.25 26.76 11.31 26.77C11.33 26.78 11.34 26.78 11.35 26.78C11.36 26.78 11.36 26.78 11.37 26.78C11.39 26.79 11.42 26.79 11.44 26.8C11.46 26.8 11.47 26.81 11.49 26.81C11.5 26.81 11.51 26.81 11.51 26.82C11.52 26.82 11.53 26.82 11.54 26.82C11.54 26.82 11.54 26.82 11.54 26.82C11.55 26.83 11.56 26.83 11.57 26.83C11.57 26.83 11.57 26.83 11.58 26.83C11.58 26.83 11.59 26.84 11.59 26.84C11.63 26.85 11.68 26.86 11.72 26.87C11.72 26.87 11.73 26.87 11.73 26.88C11.73 26.88 11.74 26.88 11.74 26.88C11.75 26.88 11.76 26.89 11.77 26.89C11.8 26.9 11.84 26.91 11.87 26.92C11.88 26.92 11.88 26.93 11.89 26.93C11.89 26.93 11.89 26.93 11.89 26.93C11.9 26.93 11.91 26.94 11.92 26.94C11.91 26.94 11.9 26.93 11.89 26.93C11.89 26.93 11.89 26.93 11.89 26.93C11.88 26.93 11.88 26.92 11.87 26.92C11.84 26.91 11.8 26.9 11.77 26.89C11.76 26.88 11.76 26.88 11.75 26.88C11.74 26.88 11.74 26.87 11.73 26.87C11.73 26.87 11.73 26.87 11.72 26.87C11.71 26.86 11.69 26.86 11.68 26.85C11.65 26.84 11.62 26.83 11.59 26.82C11.59 26.82 11.58 26.82 11.58 26.82C11.58 26.82 11.58 26.82 11.58 26.82C11.56 26.81 11.55 26.81 11.54 26.81C11.53 26.81 11.53 26.8 11.53 26.8C11.53 26.8 11.52 26.8 11.52 26.8C11.51 26.8 11.5 26.79 11.49 26.79C11.48 26.79 11.47 26.78 11.46 26.78C11.43 26.77 11.4 26.76 11.37 26.75C11.35 26.75 11.34 26.74 11.33 26.74C11.33 26.74 11.32 26.74 11.31 26.73C11.24 26.71 11.18 26.7 11.11 26.68C11.1 26.67 11.09 26.67 11.07 26.67C11.01 26.65 10.95 26.63 10.89 26.62C10.75 26.58 10.62 26.55 10.49 26.52C10.42 26.5 10.34 26.48 10.27 26.46C10.22 26.45 10.18 26.43 10.13 26.42C10.09 26.41 10.05 26.39 10.01 26.38C10 26.38 9.99 26.37 9.98 26.37C9.96 26.36 9.94 26.35 9.92 26.34C9.96 26.34 9.99 26.35 10.03 26.36C10.09 26.37 10.16 26.39 10.22 26.4C10.29 26.42 10.36 26.44 10.42 26.45C10.45 26.46 10.47 26.47 10.5 26.47C10.63 26.51 10.76 26.55 10.89 26.59C10.95 26.61 11.01 26.63 11.08 26.65C11.09 26.65 11.1 26.66 11.11 26.66C11.18 26.68 11.24 26.7 11.31 26.73C11.32 26.73 11.32 26.73 11.33 26.73C11.34 26.74 11.35 26.74 11.37 26.75C11.4 26.76 11.43 26.77 11.46 26.78C11.47 26.78 11.48 26.78 11.49 26.79C11.5 26.79 11.51 26.8 11.52 26.8L11.53 26.8C11.53 26.8 11.53 26.8 11.54 26.8C11.55 26.81 11.56 26.81 11.58 26.82C11.58 26.82 11.58 26.82 11.58 26.82C11.58 26.82 11.59 26.82 11.59 26.82C11.62 26.83 11.65 26.84 11.68 26.85C11.69 26.86 11.71 26.86 11.72 26.87C11.68 26.85 11.63 26.83 11.59 26.81C11.59 26.8 11.59 26.8 11.58 26.8C11.58 26.8 11.58 26.8 11.58 26.8C11.57 26.79 11.55 26.79 11.54 26.78C11.54 26.78 11.54 26.78 11.53 26.78C11.53 26.78 11.52 26.77 11.51 26.77C11.5 26.76 11.49 26.76 11.48 26.76L11.48 26.76C11.46 26.75 11.44 26.74 11.42 26.73C11.44 26.74 11.46 26.75 11.48 26.77C11.48 26.77 11.48 26.77 11.49 26.77C11.5 26.78 11.51 26.79 11.53 26.8C11.51 26.79 11.5 26.79 11.49 26.78C11.48 26.78 11.48 26.77 11.47 26.77C11.43 26.75 11.4 26.74 11.37 26.72C11.35 26.71 11.33 26.7 11.31 26.7L11.31 26.69C11.24 26.66 11.18 26.63 11.11 26.6C11.11 26.6 11.1 26.6 11.1 26.59C11.09 26.59 11.09 26.59 11.09 26.59C11.03 26.57 10.96 26.54 10.9 26.52C10.82 26.49 10.75 26.47 10.68 26.44C10.62 26.42 10.57 26.4 10.51 26.38C10.5 26.37 10.48 26.37 10.46 26.36C10.41 26.35 10.37 26.33 10.32 26.31C10.27 26.29 10.21 26.27 10.16 26.25C10.14 26.25 10.13 26.24 10.11 26.24C10.04 26.21 9.97 26.18 9.9 26.15C9.9 26.15 9.89 26.15 9.88 26.15C9.88 26.14 9.87 26.14 9.87 26.14C9.84 26.13 9.82 26.12 9.8 26.11C9.74 26.08 9.69 26.06 9.63 26.03C9.58 26.01 9.53 25.98 9.48 25.95C9.55 25.98 9.62 26.01 9.7 26.03C9.73 26.05 9.77 26.06 9.81 26.07C9.83 26.08 9.86 26.09 9.88 26.1C9.92 26.11 9.96 26.13 10 26.14C10 26.14 10 26.14 10.01 26.14C10.08 26.17 10.15 26.2 10.22 26.23C10.23 26.23 10.24 26.23 10.25 26.24C10.3 26.26 10.35 26.28 10.41 26.3C10.44 26.31 10.48 26.33 10.52 26.34C10.52 26.35 10.53 26.35 10.53 26.35C10.6 26.38 10.67 26.41 10.74 26.44C10.79 26.46 10.84 26.48 10.9 26.5C10.96 26.53 11.03 26.56 11.09 26.59C11.09 26.59 11.09 26.59 11.1 26.59C11.1 26.6 11.11 26.6 11.11 26.6C11.17 26.62 11.24 26.65 11.3 26.68C11.31 26.68 11.31 26.68 11.31 26.68C11.33 26.69 11.35 26.7 11.37 26.7C11.38 26.71 11.4 26.72 11.42 26.73C11.4 26.72 11.38 26.7 11.37 26.69C11.35 26.68 11.33 26.67 11.31 26.66C11.3 26.65 11.29 26.65 11.29 26.65C11.28 26.64 11.27 26.63 11.26 26.63C11.21 26.6 11.16 26.58 11.11 26.56C11.11 26.56 11.1 26.55 11.1 26.55C11.04 26.52 10.97 26.49 10.9 26.46C10.88 26.45 10.86 26.44 10.84 26.43C10.77 26.4 10.7 26.36 10.63 26.33C10.6 26.32 10.56 26.3 10.53 26.29C10.52 26.28 10.52 26.28 10.52 26.28C10.47 26.26 10.42 26.24 10.37 26.21C10.37 26.21 10.37 26.21 10.36 26.21C10.3 26.18 10.24 26.16 10.18 26.13C10.18 26.13 10.18 26.13 10.18 26.13C10.1 26.1 10.03 26.06 9.95 26.03C9.94 26.02 9.93 26.02 9.91 26.01C9.88 26 9.86 25.99 9.83 25.98C9.73 25.94 9.63 25.9 9.53 25.86C9.53 25.86 9.53 25.86 9.52 25.86C9.5 25.85 9.48 25.84 9.46 25.83C9.37 25.8 9.29 25.77 9.21 25.74C9.29 25.77 9.38 25.8 9.46 25.83C9.48 25.83 9.5 25.84 9.53 25.85C9.53 25.85 9.54 25.85 9.54 25.86C9.64 25.89 9.74 25.93 9.84 25.96C9.86 25.97 9.89 25.98 9.92 25.99C9.95 26.01 9.98 26.02 10.01 26.03C10.09 26.06 10.17 26.09 10.24 26.12C10.24 26.12 10.25 26.12 10.25 26.13C10.31 26.15 10.37 26.18 10.43 26.2C10.43 26.2 10.43 26.2 10.43 26.2C10.47 26.22 10.5 26.23 10.53 26.25C10.55 26.26 10.57 26.26 10.58 26.27C10.62 26.29 10.66 26.31 10.69 26.32C10.76 26.35 10.83 26.39 10.9 26.42C10.9 26.43 10.9 26.43 10.91 26.43C10.97 26.46 11.04 26.5 11.11 26.54L11.11 26.54C11.16 26.57 11.21 26.6 11.26 26.63C11.27 26.63 11.28 26.64 11.29 26.64C11.29 26.64 11.3 26.65 11.31 26.65C11.33 26.66 11.35 26.67 11.37 26.68C11.4 26.7 11.44 26.71 11.48 26.73C11.49 26.73 11.49 26.74 11.5 26.74L11.5 26.74C11.51 26.75 11.53 26.75 11.54 26.76C11.54 26.76 11.54 26.76 11.54 26.76C11.55 26.77 11.56 26.77 11.57 26.77C11.58 26.78 11.58 26.78 11.59 26.78C11.59 26.79 11.6 26.79 11.6 26.79C11.64 26.81 11.69 26.83 11.73 26.85C11.74 26.85 11.75 26.86 11.75 26.86C11.76 26.86 11.77 26.87 11.77 26.87C11.77 26.87 11.78 26.87 11.78 26.87C11.81 26.89 11.84 26.9 11.87 26.91C11.87 26.92 11.88 26.92 11.89 26.92C11.89 26.92 11.89 26.92 11.89 26.93C11.9 26.93 11.91 26.93 11.92 26.94C11.91 26.94 11.9 26.94 11.89 26.94C11.89 26.94 11.89 26.93 11.88 26.93C11.88 26.93 11.88 26.93 11.88 26.93ZM10.97 27.02C11.02 27.02 11.08 27.02 11.13 27.02C11.16 27.02 11.2 27.02 11.23 27.02C11.26 27.02 11.29 27.02 11.32 27.02C11.34 27.02 11.35 27.02 11.37 27.02C11.37 27.02 11.38 27.02 11.39 27.02C11.4 27.02 11.42 27.02 11.44 27.02C11.45 27.02 11.45 27.02 11.46 27.02L11.46 27.03L11.46 27.03L11.47 27.03C11.47 27.04 11.47 27.04 11.47 27.04C11.49 27.07 11.5 27.08 11.52 27.09C11.52 27.09 11.52 27.1 11.53 27.1C11.56 27.11 11.59 27.11 11.61 27.11C11.64 27.1 11.66 27.09 11.66 27.09L11.53 27.17C11.5 27.17 11.48 27.17 11.45 27.17C11.44 27.17 11.43 27.17 11.41 27.17C11.41 27.17 11.4 27.17 11.39 27.17C11.38 27.17 11.38 27.17 11.37 27.17C11.35 27.17 11.34 27.17 11.33 27.17C11.31 27.17 11.3 27.17 11.29 27.18C11.27 27.18 11.25 27.18 11.22 27.18C11.21 27.18 11.19 27.18 11.17 27.18C11.16 27.19 11.15 27.19 11.14 27.19C11.12 27.19 11.09 27.19 11.07 27.19C11.07 27.19 11.06 27.2 11.05 27.2C11.01 27.2 10.96 27.21 10.92 27.21C10.91 27.21 10.91 27.21 10.9 27.21C10.82 27.22 10.74 27.24 10.66 27.25C10.58 27.26 10.49 27.27 10.41 27.29C10.4 27.29 10.38 27.29 10.37 27.29C10.36 27.29 10.36 27.29 10.35 27.3C10.32 27.3 10.29 27.31 10.26 27.31C10.24 27.31 10.21 27.32 10.19 27.32C10.17 27.32 10.15 27.33 10.13 27.33C10.07 27.34 10.01 27.35 9.95 27.36C9.92 27.36 9.89 27.37 9.86 27.37C9.83 27.37 9.81 27.38 9.79 27.38C9.69 27.39 9.59 27.41 9.48 27.42C9.56 27.4 9.65 27.37 9.73 27.35C9.74 27.35 9.75 27.35 9.77 27.34C9.78 27.34 9.8 27.33 9.82 27.33C9.9 27.31 9.98 27.29 10.06 27.27C10.08 27.27 10.1 27.26 10.12 27.26C10.13 27.26 10.13 27.26 10.13 27.26C10.16 27.25 10.19 27.24 10.22 27.24C10.24 27.23 10.26 27.23 10.28 27.22C10.31 27.22 10.35 27.21 10.39 27.2C10.41 27.2 10.44 27.19 10.46 27.19C10.44 27.19 10.41 27.19 10.39 27.19C10.34 27.2 10.29 27.2 10.24 27.21C10.22 27.21 10.2 27.21 10.17 27.21C10.15 27.22 10.14 27.22 10.12 27.22C10.1 27.22 10.07 27.22 10.05 27.23C10.02 27.23 9.98 27.23 9.95 27.23C9.83 27.24 9.72 27.25 9.61 27.26C9.59 27.26 9.57 27.26 9.55 27.26C9.54 27.26 9.53 27.26 9.51 27.26C9.5 27.26 9.48 27.26 9.47 27.27C9.45 27.27 9.42 27.27 9.4 27.27C9.29 27.27 9.18 27.28 9.08 27.28C9.18 27.25 9.29 27.23 9.39 27.21C9.41 27.21 9.43 27.21 9.44 27.2C9.45 27.2 9.46 27.2 9.47 27.2C9.48 27.2 9.49 27.19 9.5 27.19C9.54 27.19 9.58 27.18 9.63 27.17C9.67 27.17 9.7 27.16 9.74 27.16C9.78 27.15 9.81 27.15 9.85 27.15C9.89 27.14 9.94 27.14 9.99 27.13C10.01 27.13 10.04 27.13 10.06 27.12C10.07 27.12 10.08 27.12 10.09 27.12C10.08 27.12 10.07 27.12 10.06 27.12C10.03 27.12 10.01 27.12 9.98 27.13C9.92 27.13 9.87 27.13 9.81 27.13C9.77 27.13 9.72 27.13 9.68 27.13C9.66 27.13 9.65 27.13 9.64 27.13C9.6 27.13 9.55 27.13 9.51 27.13C9.5 27.13 9.48 27.13 9.47 27.13C9.44 27.13 9.41 27.13 9.38 27.13C9.35 27.13 9.32 27.12 9.29 27.12C9.23 27.12 9.16 27.11 9.09 27.1C9.05 27.1 9.01 27.09 8.96 27.09C8.91 27.08 8.87 27.07 8.82 27.06C8.87 27.06 8.91 27.05 8.96 27.05C9 27.05 9.05 27.04 9.09 27.04C9.11 27.04 9.12 27.04 9.14 27.04C9.22 27.03 9.29 27.03 9.37 27.02C9.38 27.02 9.4 27.02 9.41 27.02C9.43 27.02 9.44 27.02 9.46 27.02C9.48 27.02 9.49 27.02 9.51 27.02C9.52 27.02 9.53 27.02 9.54 27.02C9.58 27.02 9.62 27.02 9.66 27.02C9.68 27.02 9.71 27.02 9.73 27.02C9.76 27.02 9.78 27.02 9.8 27.02C9.9 27.02 10 27.02 10.1 27.02C10.2 27.02 10.31 27.02 10.41 27.02C10.42 27.02 10.42 27.02 10.43 27.02C10.54 27.02 10.65 27.02 10.77 27.02C10.83 27.02 10.9 27.02 10.97 27.02ZM10.75 27.06C10.82 27.06 10.89 27.05 10.97 27.04C11.02 27.04 11.07 27.03 11.13 27.03C11.08 27.03 11.02 27.04 10.97 27.04C10.89 27.05 10.82 27.06 10.75 27.07C10.69 27.07 10.64 27.08 10.59 27.08C10.53 27.09 10.46 27.09 10.4 27.1C10.3 27.11 10.21 27.11 10.11 27.12C10.1 27.12 10.09 27.12 10.09 27.12C10.09 27.12 10.1 27.12 10.11 27.12C10.21 27.11 10.3 27.1 10.4 27.09C10.46 27.09 10.52 27.08 10.58 27.08C10.63 27.07 10.69 27.07 10.75 27.06ZM10.73 27.14C10.8 27.13 10.87 27.12 10.95 27.12C11.01 27.11 11.07 27.11 11.13 27.1C11.14 27.1 11.15 27.1 11.16 27.1C11.19 27.1 11.22 27.1 11.26 27.1C11.28 27.1 11.3 27.1 11.33 27.1C11.3 27.1 11.27 27.1 11.24 27.11C11.21 27.11 11.18 27.11 11.15 27.12C11.14 27.12 11.14 27.12 11.13 27.12C11.07 27.12 11 27.13 10.94 27.14C10.88 27.14 10.82 27.15 10.77 27.16C10.74 27.16 10.72 27.16 10.7 27.16C10.62 27.17 10.54 27.18 10.46 27.19C10.54 27.17 10.63 27.16 10.71 27.15C10.72 27.15 10.73 27.14 10.73 27.14ZM11.92 28.4C11.9 28.44 11.89 28.47 11.88 28.5C11.87 28.52 11.87 28.53 11.86 28.55C11.84 28.59 11.82 28.64 11.8 28.68C11.79 28.7 11.78 28.72 11.77 28.74C11.77 28.74 11.77 28.75 11.77 28.75C11.74 28.84 11.71 28.93 11.67 29.02C11.65 29.06 11.62 29.1 11.6 29.14C11.61 29.11 11.62 29.07 11.64 29.03C11.67 28.95 11.72 28.85 11.77 28.75C11.77 28.75 11.77 28.74 11.77 28.74C11.78 28.72 11.78 28.7 11.79 28.67C11.81 28.62 11.82 28.57 11.84 28.52C11.84 28.51 11.85 28.49 11.85 28.48C11.86 28.45 11.87 28.43 11.88 28.4C11.87 28.43 11.86 28.45 11.85 28.47C11.84 28.48 11.83 28.5 11.82 28.51C11.8 28.55 11.78 28.59 11.76 28.63C11.75 28.66 11.73 28.69 11.72 28.72C11.65 28.85 11.58 28.97 11.52 29.09C11.52 29.09 11.51 29.1 11.51 29.11C11.49 29.14 11.47 29.17 11.46 29.2C11.45 29.21 11.44 29.23 11.43 29.24C11.4 29.29 11.38 29.34 11.35 29.39C11.32 29.43 11.3 29.46 11.28 29.5C11.27 29.5 11.27 29.51 11.27 29.51C11.27 29.51 11.27 29.5 11.28 29.5C11.3 29.47 11.32 29.43 11.34 29.39C11.37 29.34 11.39 29.29 11.42 29.23C11.43 29.22 11.44 29.2 11.45 29.18C11.45 29.16 11.46 29.15 11.47 29.13C11.48 29.11 11.49 29.09 11.5 29.07C11.53 28.99 11.57 28.9 11.6 28.82C11.56 28.89 11.51 28.97 11.46 29.04C11.45 29.06 11.43 29.09 11.41 29.11C11.39 29.14 11.37 29.17 11.35 29.2C11.35 29.2 11.35 29.21 11.35 29.21C11.29 29.29 11.24 29.37 11.19 29.45C11.17 29.48 11.15 29.51 11.13 29.54C11.13 29.55 11.13 29.55 11.12 29.56C11.11 29.57 11.1 29.59 11.1 29.6C11.07 29.64 11.05 29.68 11.03 29.72C11.01 29.74 11 29.77 10.99 29.79C10.97 29.82 10.95 29.85 10.94 29.89C10.95 29.85 10.97 29.82 10.99 29.79C11 29.77 11.01 29.74 11.03 29.72C11.05 29.68 11.07 29.64 11.09 29.61C11.1 29.59 11.11 29.57 11.12 29.55C11.12 29.55 11.12 29.55 11.12 29.55C11.14 29.52 11.16 29.48 11.18 29.45C11.22 29.38 11.26 29.31 11.3 29.24C11.31 29.23 11.32 29.21 11.33 29.19C11.35 29.15 11.38 29.11 11.4 29.07C11.41 29.05 11.42 29.04 11.43 29.02C11.5 28.9 11.57 28.79 11.63 28.68C11.63 28.68 11.63 28.67 11.64 28.67C11.63 28.67 11.63 28.67 11.63 28.68C11.55 28.77 11.47 28.88 11.39 28.99C11.39 29 11.38 29.01 11.37 29.02C11.35 29.06 11.32 29.11 11.29 29.15Q11.28 29.16 11.28 29.16Q11.22 29.25 11.17 29.33Q11.14 29.37 11.12 29.41Q11.1 29.44 11.08 29.47Q11.03 29.56 10.98 29.65Q10.97 29.65 10.97 29.66Q10.96 29.67 10.96 29.68Q10.94 29.71 10.93 29.73Q10.9 29.79 10.87 29.85C10.89 29.81 10.91 29.77 10.93 29.73C10.94 29.71 10.95 29.7 10.96 29.68C10.96 29.68 10.96 29.67 10.97 29.66C10.97 29.66 10.97 29.65 10.98 29.65C11.01 29.59 11.05 29.53 11.08 29.47C11.09 29.45 11.11 29.43 11.12 29.41C11.14 29.38 11.15 29.36 11.17 29.33C11.2 29.28 11.24 29.22 11.28 29.16C11.28 29.16 11.28 29.15 11.29 29.15Q11.33 29.08 11.37 29.02Q11.38 29 11.39 28.99Q11.5 28.83 11.62 28.67Q11.65 28.63 11.68 28.59C11.69 28.58 11.69 28.56 11.7 28.55C11.72 28.52 11.74 28.49 11.75 28.46C11.76 28.44 11.77 28.42 11.78 28.41C11.79 28.38 11.81 28.36 11.82 28.33C11.83 28.31 11.84 28.29 11.85 28.28C11.85 28.27 11.86 28.26 11.86 28.26C11.86 28.26 11.85 28.27 11.85 28.28C11.84 28.29 11.83 28.31 11.82 28.33C11.81 28.36 11.8 28.38 11.79 28.41C11.78 28.43 11.77 28.44 11.76 28.46C11.75 28.48 11.74 28.5 11.74 28.52C11.75 28.5 11.76 28.48 11.77 28.47C11.78 28.45 11.79 28.44 11.8 28.43C11.82 28.4 11.84 28.38 11.85 28.36C11.87 28.34 11.88 28.33 11.89 28.32C11.89 28.31 11.9 28.3 11.91 28.29C11.92 28.28 11.92 28.27 11.93 28.26C11.93 28.25 11.94 28.25 11.94 28.24C11.95 28.24 11.96 28.23 11.96 28.22C11.97 28.22 11.97 28.21 11.97 28.21C11.97 28.21 11.97 28.2 11.98 28.2C11.98 28.2 11.98 28.19 11.99 28.19C11.99 28.19 11.99 28.19 11.99 28.18C11.99 28.19 11.99 28.19 11.99 28.19C11.99 28.2 11.99 28.2 11.98 28.21C11.98 28.21 11.98 28.22 11.98 28.23C11.98 28.23 11.98 28.24 11.97 28.24C11.97 28.24 11.97 28.25 11.97 28.25L11.97 28.25C11.96 28.27 11.96 28.29 11.95 28.31C11.94 28.34 11.93 28.37 11.92 28.39C11.92 28.4 11.92 28.4 11.92 28.4ZM11.9 28.36C11.9 28.37 11.89 28.37 11.89 28.38C11.89 28.39 11.88 28.4 11.88 28.4C11.88 28.4 11.88 28.39 11.89 28.38C11.89 28.37 11.9 28.36 11.9 28.35C11.91 28.33 11.92 28.31 11.93 28.3C11.93 28.28 11.94 28.27 11.95 28.26C11.95 28.25 11.95 28.25 11.95 28.25C11.96 28.24 11.96 28.23 11.97 28.22C11.97 28.22 11.97 28.22 11.97 28.22C11.97 28.21 11.98 28.21 11.98 28.2C11.98 28.2 11.98 28.19 11.99 28.19C11.99 28.19 11.99 28.19 11.99 28.18C11.99 28.19 11.99 28.19 11.99 28.19C11.99 28.19 11.98 28.2 11.98 28.2C11.98 28.21 11.98 28.21 11.97 28.22C11.97 28.22 11.97 28.23 11.97 28.23C11.96 28.23 11.96 28.24 11.96 28.25C11.96 28.25 11.96 28.25 11.95 28.25C11.95 28.27 11.94 28.28 11.93 28.3C11.92 28.32 11.91 28.34 11.9 28.36ZM11.98 28.01C11.96 28.02 11.95 28.04 11.93 28.05C11.93 28.05 11.92 28.06 11.92 28.06L11.91 28.06C11.91 28.07 11.9 28.07 11.9 28.07L11.9 28.07L11.9 28.07C11.89 28.08 11.89 28.08 11.88 28.09C11.88 28.09 11.88 28.09 11.87 28.1C11.87 28.1 11.86 28.1 11.86 28.11C11.85 28.12 11.84 28.13 11.83 28.14C11.82 28.14 11.82 28.14 11.82 28.14C11.81 28.15 11.81 28.15 11.81 28.15C11.8 28.16 11.78 28.17 11.77 28.18C11.77 28.19 11.76 28.2 11.75 28.2C11.74 28.22 11.72 28.23 11.71 28.24C11.69 28.26 11.68 28.27 11.66 28.29C11.65 28.29 11.64 28.3 11.63 28.31C11.61 28.33 11.6 28.34 11.58 28.36C11.57 28.37 11.56 28.37 11.56 28.38C11.51 28.42 11.46 28.46 11.41 28.49C11.35 28.54 11.28 28.59 11.2 28.64C11.27 28.6 11.34 28.54 11.41 28.48C11.45 28.45 11.49 28.41 11.54 28.37C11.54 28.36 11.55 28.35 11.56 28.35C11.57 28.34 11.58 28.33 11.59 28.32C11.61 28.3 11.62 28.29 11.64 28.27C11.66 28.26 11.67 28.24 11.69 28.23C11.7 28.22 11.72 28.2 11.73 28.19C11.74 28.19 11.75 28.18 11.75 28.18C11.77 28.16 11.78 28.15 11.8 28.14L11.8 28.13C11.8 28.13 11.81 28.13 11.81 28.13C11.82 28.12 11.83 28.11 11.84 28.1C11.85 28.1 11.86 28.09 11.86 28.09C11.87 28.09 11.87 28.08 11.87 28.08C11.88 28.08 11.89 28.07 11.89 28.07L11.89 28.07C11.9 28.06 11.9 28.06 11.91 28.06L11.91 28.05C11.92 28.05 11.92 28.05 11.93 28.04C11.94 28.03 11.96 28.02 11.98 28.01C12 27.99 12.03 27.98 12.06 27.96C12.03 27.98 12 27.99 11.98 28.01C11.96 28.02 11.94 28.03 11.93 28.04C11.92 28.05 11.92 28.05 11.91 28.05L11.91 28.06C11.9 28.06 11.9 28.06 11.89 28.06L11.89 28.06C11.89 28.07 11.88 28.07 11.87 28.08C11.87 28.08 11.87 28.08 11.86 28.09C11.85 28.09 11.85 28.1 11.84 28.1C11.83 28.11 11.81 28.12 11.8 28.13L11.8 28.13C11.8 28.13 11.8 28.13 11.79 28.13C11.78 28.15 11.76 28.16 11.74 28.17C11.74 28.18 11.73 28.18 11.72 28.19C11.71 28.2 11.69 28.21 11.68 28.22C11.66 28.23 11.65 28.24 11.63 28.26C11.6 28.28 11.57 28.3 11.54 28.33C11.54 28.33 11.53 28.33 11.53 28.33C11.52 28.34 11.52 28.34 11.51 28.35C11.47 28.38 11.42 28.42 11.38 28.45C11.31 28.5 11.25 28.55 11.18 28.6C11.13 28.64 11.08 28.68 11.03 28.72C10.95 28.77 10.88 28.82 10.8 28.86C10.88 28.82 10.95 28.77 11.03 28.72C11.08 28.68 11.13 28.64 11.18 28.6C11.25 28.55 11.31 28.49 11.37 28.44C11.42 28.41 11.46 28.37 11.5 28.34C11.5 28.34 11.51 28.33 11.51 28.33L11.51 28.33C11.55 28.3 11.58 28.27 11.62 28.24C11.63 28.23 11.65 28.22 11.66 28.21C11.68 28.2 11.69 28.19 11.71 28.18C11.71 28.17 11.72 28.17 11.73 28.17C11.74 28.15 11.76 28.14 11.78 28.13C11.78 28.13 11.78 28.13 11.79 28.12C11.79 28.12 11.79 28.12 11.79 28.12C11.81 28.11 11.82 28.1 11.83 28.1C11.84 28.09 11.85 28.09 11.85 28.08C11.86 28.08 11.86 28.08 11.87 28.07C11.87 28.07 11.88 28.06 11.89 28.06C11.89 28.06 11.9 28.05 11.9 28.05L11.91 28.05C11.91 28.04 11.92 28.04 11.92 28.04L11.91 28.05L11.9 28.05L11.89 28.06L11.87 28.07L11.85 28.08L11.83 28.09L11.79 28.11L11.78 28.12L11.77 28.12C11.75 28.14 11.73 28.15 11.71 28.16L11.7 28.17C11.68 28.18 11.66 28.19 11.65 28.2C11.63 28.21 11.62 28.22 11.6 28.23C11.56 28.25 11.51 28.28 11.47 28.3C11.47 28.3 11.46 28.31 11.46 28.31C11.44 28.32 11.42 28.33 11.4 28.34C11.38 28.36 11.36 28.37 11.34 28.38C11.27 28.42 11.21 28.47 11.14 28.51C11.07 28.55 11 28.6 10.94 28.65C10.88 28.69 10.82 28.73 10.77 28.78L10.76 28.78C10.76 28.78 10.76 28.78 10.76 28.78C10.68 28.84 10.61 28.9 10.54 28.97C10.49 29.01 10.45 29.05 10.41 29.09C10.45 29.04 10.5 28.99 10.55 28.95L10.55 28.94C10.62 28.88 10.69 28.82 10.76 28.77C10.76 28.76 10.77 28.76 10.77 28.76C10.78 28.75 10.78 28.75 10.78 28.75C10.83 28.71 10.88 28.68 10.93 28.64C10.99 28.6 11.07 28.55 11.14 28.5C11.2 28.46 11.27 28.42 11.33 28.38C11.35 28.37 11.37 28.36 11.39 28.34C11.42 28.33 11.44 28.32 11.46 28.31L11.47 28.3C11.51 28.28 11.56 28.25 11.6 28.22C11.62 28.22 11.63 28.21 11.64 28.2C11.66 28.19 11.68 28.18 11.7 28.17L11.71 28.16C11.73 28.15 11.75 28.14 11.77 28.12L10.21 29.02C10.23 29.01 10.25 29 10.26 28.99C10.28 28.98 10.29 28.97 10.3 28.96C10.31 28.96 10.32 28.95 10.33 28.94L10.34 28.94C10.38 28.92 10.42 28.89 10.47 28.86C10.48 28.85 10.49 28.84 10.5 28.84C10.55 28.8 10.6 28.77 10.65 28.73C10.66 28.72 10.68 28.72 10.69 28.71C10.7 28.7 10.71 28.69 10.72 28.68C10.76 28.66 10.8 28.63 10.84 28.6C10.85 28.59 10.86 28.58 10.87 28.58C10.89 28.57 10.9 28.56 10.91 28.55C10.97 28.5 11.04 28.46 11.1 28.41C11.12 28.4 11.14 28.38 11.16 28.37C11.2 28.34 11.24 28.31 11.28 28.28C11.3 28.26 11.33 28.25 11.35 28.23C11.35 28.23 11.35 28.23 11.35 28.23C11.38 28.21 11.41 28.19 11.44 28.17C11.45 28.16 11.46 28.16 11.46 28.15C11.47 28.14 11.48 28.14 11.49 28.13C11.5 28.13 11.5 28.13 11.5 28.13C11.51 28.12 11.52 28.11 11.53 28.11C11.53 28.1 11.54 28.1 11.55 28.09C11.55 28.09 11.55 28.09 11.55 28.09C11.56 28.09 11.56 28.08 11.57 28.08C11.58 28.08 11.58 28.07 11.59 28.07C11.6 28.06 11.61 28.05 11.62 28.05C11.62 28.04 11.63 28.04 11.63 28.04C11.65 28.03 11.66 28.02 11.67 28.01C11.69 28 11.7 27.99 11.72 27.98C11.72 27.98 11.73 27.98 11.73 27.98C11.74 27.97 11.74 27.97 11.75 27.96C11.76 27.96 11.77 27.95 11.78 27.94C11.79 27.93 11.81 27.92 11.83 27.91C11.84 27.91 11.85 27.9 11.86 27.89C11.88 27.88 11.91 27.87 11.93 27.85C11.95 27.84 11.97 27.83 11.99 27.82C12.12 27.74 12.19 27.89 12.06 27.96C12.03 27.98 12 27.99 11.98 28.01ZM11.79 28.48C11.77 28.52 11.75 28.56 11.73 28.6C11.71 28.63 11.69 28.67 11.67 28.7C11.65 28.74 11.63 28.78 11.6 28.82C11.62 28.78 11.64 28.74 11.66 28.69C11.67 28.66 11.69 28.62 11.71 28.58C11.68 28.61 11.66 28.64 11.64 28.67C11.65 28.64 11.67 28.61 11.68 28.59C11.69 28.58 11.7 28.57 11.7 28.56C11.71 28.54 11.73 28.53 11.74 28.52C11.73 28.53 11.72 28.55 11.71 28.57C11.71 28.57 11.71 28.58 11.71 28.58C11.71 28.58 11.71 28.58 11.71 28.57C11.74 28.54 11.77 28.51 11.79 28.48ZM14.57 30.56L13.31 27.8C13.33 27.84 13.35 27.89 13.37 27.93C13.38 27.94 13.38 27.95 13.39 27.96C13.39 27.98 13.4 27.99 13.41 28C13.41 28.01 13.42 28.02 13.42 28.03C13.55 28.3 13.68 28.56 13.82 28.82C13.92 29.02 14.02 29.21 14.11 29.39C14.2 29.59 14.29 29.77 14.37 29.95C14.37 29.96 14.37 29.96 14.37 29.97C14.38 29.98 14.38 30 14.39 30.01C14.41 30.05 14.42 30.09 14.44 30.13C14.47 30.21 14.49 30.29 14.52 30.36C14.54 30.43 14.56 30.49 14.57 30.56ZM14.86 30.83C14.94 30.77 15.02 30.7 15.1 30.62C15.16 30.59 15.22 30.56 15.28 30.53C15.33 30.51 15.38 30.49 15.43 30.47C15.59 30.43 15.77 30.47 15.96 30.68C16.03 30.89 16.09 31.09 16.16 31.3C16.32 31.79 16.49 32.27 16.68 32.74C16.75 32.92 16.83 33.09 16.9 33.27C16.94 33.34 16.97 33.41 17 33.48C17.13 33.74 17.27 34 17.42 34.25C17.21 34.17 17.09 34.2 16.99 34.27C16.95 34.29 16.91 34.32 16.88 34.35C16.82 34.39 16.77 34.44 16.7 34.48L16.17 34.78C16.14 34.7 16.12 34.62 16.09 34.53C16.08 34.5 16.07 34.46 16.05 34.42C15.99 34.24 15.92 34.05 15.85 33.87C15.59 33.19 15.27 32.53 14.87 31.85C14.84 31.8 14.82 31.76 14.79 31.72C14.76 31.67 14.74 31.63 14.71 31.58C14.31 31.26 14.47 31.13 14.77 30.9C14.79 30.88 14.81 30.87 14.83 30.85C14.84 30.85 14.85 30.84 14.86 30.83ZM16.09 33.73C16.12 33.8 16.14 33.86 16.17 33.93C16.22 34.07 16.27 34.21 16.3 34.34L15.04 31.58C15.06 31.62 15.08 31.67 15.1 31.71C15.24 32.02 15.4 32.31 15.54 32.6C15.65 32.8 15.75 33 15.85 33.2C15.94 33.38 16.02 33.56 16.09 33.73Z" fill="#FE9013" fill-opacity="1.000000" fill-rule="evenodd"/>
	<rect id="Rectangle 5" x="0.399902" y="0.399902" rx="2.000000" width="64.799995" height="40.799999" stroke="#FE9013" stroke-opacity="1.000000" stroke-width="0.800000"/>
</svg>
