<svg width="88.000000" height="28.000000" viewBox="0 0 88 28" fill="none" xmlns="http://www.w3.org/2000/svg" xmlns:xlink="http://www.w3.org/1999/xlink">
	<desc>
			Created with Pixso.
	</desc>
	<defs/>
	<path id="arrow" d="M-0.68 15.65C-0.27 16.37 4.57 14.13 12.42 11.1C16.96 9.34 21.62 7.9 26.37 6.8C32.08 5.49 37.94 4.98 43.79 5.31C49.58 5.67 55.25 7.1 60.53 9.51C64.95 11.48 69.18 13.86 73.16 16.61C76.02 18.6 78.32 20.41 80.09 21.82C79.19 21.82 78.31 21.83 77.48 21.86C75.31 21.93 73.35 22.07 71.7 22.27C68.41 22.67 66.36 23.31 66.34 24.09C66.31 24.86 68.31 25.63 71.57 26.25C73.2 26.56 75.14 26.83 77.3 27.04C78.38 27.15 79.52 27.24 80.7 27.32C81.28 27.35 81.88 27.39 82.49 27.42L83.41 27.46C83.6 27.47 83.61 27.48 84.04 27.48C84.34 27.47 84.64 27.43 84.93 27.35C85.43 27.22 85.9 26.97 86.28 26.62C86.67 26.27 86.97 25.84 87.15 25.36C87.27 25.05 87.35 24.72 87.38 24.39C87.4 24.19 87.41 24 87.4 23.8L87.38 23.49C87.36 23.11 87.32 22.74 87.27 22.38C87.17 21.7 87.04 21.03 86.87 20.37C86.55 19.12 86.22 18.08 85.89 17.04C85.23 14.97 84.56 13.12 83.92 11.59C82.64 8.54 81.48 6.74 80.72 6.92C79.97 7.11 79.77 9.25 80.06 12.55C80.21 14.2 80.48 16.14 80.86 18.28C80.9 18.5 80.94 18.73 80.99 18.95C79.33 17 77.54 15.17 75.61 13.48C71.71 10.06 67.38 7.16 62.75 4.83C56.97 1.85 50.64 0.1 44.15 -0.31C37.74 -0.67 31.3 0.03 25.11 1.77C20.15 3.17 15.35 5.08 10.79 7.47C3.07 11.56 -1.04 15.02 -0.68 15.65Z" fill="#468E0D" fill-opacity="1.000000" fill-rule="nonzero"/>
</svg>
